<svg width="1000" height="560" viewBox="0 0 1000 560" fill="none" xmlns="http://www.w3.org/2000/svg">
<rect width="1000" height="560" fill="#FBC2C1"/>
<path d="M246.4 274.9C246.4 256.3 261.5 241.1 280.2 241.1C298.8 241.1 314 256.2 314 274.9H246.4Z" fill="white"/>
<path d="M181.3 274.9C181.3 256.3 196.4 241.1 215.1 241.1C233.8 241.1 248.9 256.2 248.9 274.9H181.3Z" fill="white"/>
<path d="M818.9 427.5H200.9C200.2 427.5 199.7 426.9 199.7 426.3C199.7 425.7 200.3 425.1 200.9 425.1H818.8C819.5 425.1 820 425.7 820 426.3C820 426.9 819.6 427.5 818.9 427.5Z" fill="#0D234B"/>
<path d="M462.4 177.3C462.4 158.7 477.5 143.5 496.2 143.5C514.9 143.5 530 158.6 530 177.3H462.4Z" fill="white"/>
<path d="M649.9 334.4L652 327.7L663.9 322.1C666.4 320.9 669.2 320.3 672 320.3C675.5 320.3 678.4 323.2 678.4 326.7V334.4H649.9Z" fill="#005D92"/>
<path d="M672.5 427.2C687.578 427.2 699.8 414.977 699.8 399.9C699.8 384.823 687.578 372.6 672.5 372.6C657.423 372.6 645.2 384.823 645.2 399.9C645.2 414.977 657.423 427.2 672.5 427.2Z" fill="#0D234B"/>
<path d="M428.1 427.2C443.177 427.2 455.4 414.977 455.4 399.9C455.4 384.823 443.177 372.6 428.1 372.6C413.022 372.6 400.8 384.823 400.8 399.9C400.8 414.977 413.022 427.2 428.1 427.2Z" fill="#0D234B"/>
<path d="M576.6 406.2C576.1 404.2 575.9 402.1 575.9 400C575.9 384.9 588.1 372.7 603.2 372.7C618.3 372.7 630.5 384.9 630.5 400C630.5 401.9 630.3 403.7 629.9 405.5C629.8 405.7 629.8 406 629.7 406.2" fill="#0D234B"/>
<path d="M604.5 406.2H363.1V221.3H581.3C594.1 221.3 604.5 231.7 604.5 244.5V406.2Z" fill="#005D92"/>
<path d="M670.9 331.1H550.5V282.9H630.1C636.5 282.9 642.5 286.2 645.9 291.6L670.9 331.1Z" fill="#005D92"/>
<path d="M724.1 406.2H591.4V331.1H670.8L712.5 343.9C719.4 346 724.1 352.4 724.1 359.6V406.2Z" fill="#005D92"/>
<path d="M598.9 331.1H532.7V292.5C532.7 287.2 537 283 542.2 283H556.8C564 283 570.7 286.7 574.5 292.7L598.9 331.1Z" fill="#00A0D6"/>
<path d="M652.2 406.2H532.7V331.1H598.9L640.6 343.9C647.5 346 652.2 352.4 652.2 359.6V406.2Z" fill="#00A0D6"/>
<path d="M513.6 406.2H273.7V244.5C273.7 231.7 284.1 221.3 296.9 221.3H513.7V406.2H513.6Z" fill="#00A0D6"/>
<path d="M273.7 244.5V391.8H422.6C450.9 374.2 469.8 342.8 469.8 307C469.8 270.6 450.3 238.8 421.2 221.3H296.8C284.1 221.3 273.7 231.7 273.7 244.5Z" fill="#005D92"/>
<path d="M374.2 406.2H304.9V398.6C304.9 379.5 320.4 363.9 339.6 363.9C358.7 363.9 374.3 379.4 374.3 398.6V406.2H374.2Z" fill="#0D234B"/>
<path d="M734.8 408.4H264.5V399C264.5 395 267.7 391.8 271.7 391.8H727.6C731.6 391.8 734.8 395 734.8 399V408.4Z" fill="#0D234B"/>
<path d="M339.5 427.2C354.578 427.2 366.8 414.977 366.8 399.9C366.8 384.823 354.578 372.6 339.5 372.6C324.423 372.6 312.2 384.823 312.2 399.9C312.2 414.977 324.423 427.2 339.5 427.2Z" fill="#0D234B"/>
<path d="M339.3 411.1C345.486 411.1 350.5 406.086 350.5 399.9C350.5 393.714 345.486 388.7 339.3 388.7C333.114 388.7 328.1 393.714 328.1 399.9C328.1 406.086 333.114 411.1 339.3 411.1Z" fill="#005D92"/>
<path d="M661.6 331.1H543.4V292.8H631C634.7 292.8 638.1 294.7 640.1 297.8L661.6 331.1Z" fill="#0D234B"/>
<path d="M496.1 245.7H284.7C284 245.7 283.5 245.1 283.5 244.5C283.5 243.9 284.1 243.3 284.7 243.3H496.2C496.9 243.3 497.4 243.9 497.4 244.5C497.4 245.1 496.8 245.7 496.1 245.7Z" fill="#0D234B"/>
<path d="M593.8 245.7H524.4C523.7 245.7 523.2 245.1 523.2 244.5C523.2 243.9 523.8 243.3 524.4 243.3H593.8C594.5 243.3 595 243.9 595 244.5C595 245.1 594.5 245.7 593.8 245.7Z" fill="#0D234B"/>
<path d="M541.2 292.7V331.1H550.5H598.9L574.6 292.7H541.2Z" fill="#005D92"/>
<path d="M626.4 406.2H557.1V398.6C557.1 379.5 572.6 363.9 591.8 363.9C610.9 363.9 626.5 379.4 626.5 398.6V406.2H626.4Z" fill="#0D234B"/>
<path d="M591.7 427.2C606.777 427.2 619 414.977 619 399.9C619 384.823 606.777 372.6 591.7 372.6C576.623 372.6 564.4 384.823 564.4 399.9C564.4 414.977 576.623 427.2 591.7 427.2Z" fill="#0D234B"/>
<path d="M591.7 411.1C597.886 411.1 602.9 406.086 602.9 399.9C602.9 393.714 597.886 388.7 591.7 388.7C585.514 388.7 580.5 393.714 580.5 399.9C580.5 406.086 585.514 411.1 591.7 411.1Z" fill="#005D92"/>
<path d="M656.8 380.9H650.3C645.8 380.9 642.2 377.3 642.2 372.8C642.2 368.3 645.8 364.7 650.3 364.7H656.8C661.3 364.7 664.9 368.3 664.9 372.8C664.9 377.3 661.2 380.9 656.8 380.9Z" fill="#8EDDF9"/>
<path d="M724.1 380.8H717.2C712.7 380.8 709.1 377.2 709.1 372.7C709.1 368.2 712.7 364.6 717.2 364.6H724.1" fill="#8EDDF9"/>
<path d="M551.6 347.2H545.2C543 347.2 541.3 345.4 541.3 343.3C541.3 341.1 543.1 339.4 545.2 339.4H551.6C553.8 339.4 555.5 341.2 555.5 343.3C555.5 345.4 553.7 347.2 551.6 347.2Z" fill="#0D234B"/>
<path d="M598.9 331.1L596.8 327.7L584.9 322.1C582.4 320.9 579.6 320.3 576.8 320.3C573.3 320.3 570.4 323.2 570.4 326.7V331H598.9V331.1Z" fill="#0D234B"/>
<path d="M285.1 382.9H273.7V380.4H285.1C287.8 380.4 289.9 377.9 289.9 374.8C289.9 371.7 287.7 369.2 285.1 369.2H273.7V366.7H285.1C289.1 366.7 292.4 370.3 292.4 374.8C292.4 379.3 289.1 382.9 285.1 382.9Z" fill="#0D234B"/>
<path d="M503.5 245.7H503.4C502.7 245.7 502.2 245.1 502.2 244.5C502.2 243.9 502.8 243.3 503.4 243.3H503.5C504.2 243.3 504.7 243.9 504.7 244.5C504.7 245.1 504.1 245.7 503.5 245.7Z" fill="#0D234B"/>
<path d="M194.4 427.5H194.3C193.6 427.5 193.1 426.9 193.1 426.3C193.1 425.7 193.7 425.1 194.3 425.1H194.4C195.1 425.1 195.6 425.7 195.6 426.3C195.6 426.9 195.1 427.5 194.4 427.5Z" fill="#0D234B"/>
<path d="M781.6 259.5C781.6 242.9 795 229.5 811.6 229.5C828.2 229.5 841.6 242.9 841.6 259.5H781.6Z" fill="white"/>
<path d="M723.8 259.5C723.8 242.9 737.2 229.5 753.8 229.5C770.4 229.5 783.8 242.9 783.8 259.5H723.8Z" fill="white"/>
<path d="M664.2 227.8L636.9 192.4C619.5 169.7 635.6 136.9 664.2 136.9C692.8 136.9 708.9 169.7 691.5 192.4L664.2 227.8Z" fill="#F06365"/>
<path d="M664.2 188.1C673.312 188.1 680.7 180.713 680.7 171.6C680.7 162.487 673.312 155.1 664.2 155.1C655.087 155.1 647.7 162.487 647.7 171.6C647.7 180.713 655.087 188.1 664.2 188.1Z" fill="#FFC8A3"/>
</svg>
